<?xml version="1.0" encoding="utf-8"?>
<!-- Generator: Adobe Illustrator 21.0.0, SVG Export Plug-In . SVG Version: 6.00 Build 0)  -->
<svg version="1.1" id="Layer_1" xmlns="http://www.w3.org/2000/svg" xmlns:xlink="http://www.w3.org/1999/xlink" x="0px" y="0px"
	 viewBox="0 0 469.6 331.6" style="enable-background:new 0 0 469.6 331.6;" xml:space="preserve">
<style type="text/css">
	.st0{fill:#FFFFFF;}
</style>
<g>
	<path class="st0" d="M6.3,137C6.3,64.6,65.2,5.8,137.5,5.8V2.2c-36,0-69.9,14-95.3,39.5S2.7,100.9,2.7,137c0,36,14,69.9,39.5,95.3
		c19.9,19.9,44.8,32.7,72,37.5v-3.7C52.9,255,6.3,201.4,6.3,137 M12.7,137c0-68.8,56-124.8,124.8-124.8V8.5
		c-34.3,0-66.6,13.4-90.8,37.6C22.4,70.4,9.1,102.6,9.1,137c0,34.3,13.4,66.6,37.6,90.8c18.6,18.6,42,30.8,67.5,35.5v-3.7
		C56.4,248.6,12.7,197.8,12.7,137 M19,137C19,71.6,72.2,18.4,137.5,18.4v-3.6c-32.6,0-63.3,12.7-86.4,35.8S15.4,104.3,15.4,137
		c0,32.6,12.7,63.3,35.8,86.4c17.5,17.5,39.3,29,63,33.5v-3.7C59.9,242.3,19,194.3,19,137 M25.3,137c0-61.9,50.3-112.2,112.2-112.2
		v-3.6c-31,0-60,12-81.9,33.9C33.8,77,21.7,106,21.7,137c0,30.9,12,60,33.9,81.9c16.2,16.2,36.5,27.1,58.5,31.5v-3.7
		C63.5,235.9,25.3,190.8,25.3,137 M28,137c0,52.3,36.9,96.2,86.1,107v-3.7C67,229.6,31.6,187.3,31.6,137
		c0-58.4,47.5-105.9,105.9-105.9v-3.6C77.2,27.5,28,76.6,28,137 M38,137c0-54.9,44.6-99.5,99.5-99.5v-3.6
		c-27.6,0-53.5,10.7-72.9,30.2C45.1,83.5,34.4,109.4,34.4,137s10.7,53.5,30.2,72.9c13.8,13.8,30.9,23.3,49.5,27.5v-3.7
		C70.5,223.2,38,183.8,38,137 M40.7,137c0,25.9,10.1,50.2,28.3,68.5c12.6,12.6,28.2,21.3,45.1,25.5v-3.8
		C74,216.8,44.3,180.3,44.3,137c0-51.4,41.8-93.2,93.2-93.2v-3.6c-25.9,0-50.2,10.1-68.5,28.3C50.8,86.8,40.7,111.1,40.7,137
		 M47.1,137c0,24.2,9.4,46.9,26.5,64c11.4,11.4,25.4,19.4,40.6,23.4v-3.8c-36.6-10.2-63.5-43.9-63.5-83.6c0-47.9,39-86.8,86.8-86.8
		v-3.6c-24.2,0-46.9,9.4-64,26.5C56.5,90.1,47.1,112.8,47.1,137 M223.7,44l-0.9-0.8L223.7,44l4.5-4.9l-2.7-2.4l-4.5,4.9l-4.5,5
		l2.7,2.4L223.7,44z M183.3,18.2l1.3,0.5l2.4-6.2l-3.4-1.3l-2.4,6.2l-2.4,6.3l-2.4,6.2l3.4,1.3l2.4-6.2l2.4-6.3L183.3,18.2z
		 M176.4,29.9l-2.4,6.3l-2.4,6.2l3.4,1.3l2.4-6.2l2.4-6.3L176.4,29.9z M153.8,37.7L153.8,37.7l-1.9,10.4l3.5,0.7l1.9-10.4l-2.4-0.4
		l2.4,0.4l1.2-6.6l-3.5-0.7L153.8,37.7z M158.7,11.3L158.7,11.3l-1.2,6.6l3.2,0.6l-3.2-0.6l-1.2,6.6l-1.2,6.6l3.5,0.7l1.2-6.6
		l1.2-6.6l1.2-6.6l1.2-6.6l-3.5-0.7L158.7,11.3z M257,78.8l-1.6-3.2l-5.9,3l0.5,1.1l-0.5-1.1l-6,3l0,0l-5.9,3l1.6,3.2l5.9-3
		l-0.4-0.7l0.4,0.7l6-3L257,78.8z M237.6,84.5l-6,3l0.7,1.4l-0.7-1.4l-5.9,3l0,0l-9.4,4.7l0.8,1.6l0.1,0.1l-0.9-1.7l-0.1,0.1
		l1.6,3.2h0.1l0.7-0.4l5-2.5l0,0l0,0l0,0l9.6-4.8l6-3L237.6,84.5z M207.2,81.4l2.2,2.9l0.2-0.1l-2.2-2.9L207.2,81.4z M195.2,39
		l-3.5,5.7l3.1,1.9l3.5-5.7L195.2,39z M188.2,50.4l1.7,1L188.2,50.4l-5.5,9l3.1,1.9l5.5-9l0,0l3.5-5.7l-3.1-1.9L188.2,50.4z
		 M210.2,58.9L210.2,58.9l4.5-5l-2.7-2.4l-4.5,5l-4.4,4.9l-7.1,7.8l0,0l-0.2,0.2l2.7,2.4l0.2-0.2l-1.4-1.2l1.4,1.2l7.1-7.8
		L210.2,58.9z M221,70.9l-5.3,4l0,0l-8.4,6.4l1,1.3l1.2,1.5l0.5-0.4l4.6-3.5l0,0l0,0l8.5-6.5L221,70.9z M167.8,52.3l3.4,1.3l3.8-9.9
		l-3.4-1.3L167.8,52.3z M226.3,66.8l0.8,1L226.3,66.8l-5.3,4.1l2.2,2.9l5.3-4.1l5.3-4l0,0l5.3-4.1l5.3-4l-2.2-2.9l-5.3,4l-5.3,4.1
		l1.1,1.4l-1.1-1.4L226.3,66.8z M201.8,35.2l-2.4-1.5L201.8,35.2l3.5-5.7l3.5-5.7l-3.1-1.9l-3.5,5.7l0.8,0.5l-0.8-0.5l-3.5,5.7
		l-3.5,5.7l3.1,1.9L201.8,35.2z M214.7,53.9l-2.7-2.4l4.5-4.9l2.7,2.4L214.7,53.9z"/>
	<path class="st0" d="M382.5,312.4l8.3,13.4v-13.4h2.1v16.7h-2.3l-8.4-13.6v13.6H380v-16.7H382.5z M368.9,314
		c-1.6,0-2.8,0.6-3.7,1.8c-0.9,1.2-1.4,2.9-1.4,5c0,2.2,0.5,3.9,1.4,5s2.1,1.7,3.7,1.7s2.8-0.6,3.7-1.7c0.9-1.1,1.4-2.8,1.4-5
		s-0.5-3.9-1.4-5C371.7,314.6,370.4,314,368.9,314 M368.9,312.1c2.2,0,3.9,0.7,5.2,2.2c1.3,1.5,2,3.6,2,6.5c0,2.8-0.7,5-2,6.4
		c-1.3,1.5-3.1,2.2-5.3,2.2c-2.2,0-3.9-0.7-5.2-2.2c-1.3-1.5-2-3.6-2-6.4s0.7-5,2-6.4C365,312.8,366.7,312.1,368.9,312.1
		 M355.7,312.4h2.1v16.7h-2.1V312.4z M339.9,312.4h13v1.8h-5.4v14.9h-2.1v-14.9H340v-1.8H339.9z M332.1,312.1c1.8,0,3.2,0.4,4.3,1.3
		c1.1,0.9,1.8,2.1,2.2,3.5l-2.3,0.5c-0.4-1-0.9-1.9-1.7-2.5S333,314,332,314c-1.4,0-2.6,0.6-3.5,1.8c-0.9,1.2-1.4,2.8-1.4,4.9
		s0.4,3.7,1.2,5c0.8,1.3,2,1.9,3.6,1.9c1.3,0,2.4-0.4,3.1-1.1c0.8-0.7,1.2-1.6,1.2-2.8h2.3c0,1.8-0.6,3.1-1.8,4.2
		c-1.2,1-2.8,1.5-4.9,1.5s-3.8-0.8-5-2.4c-1.3-1.6-1.9-3.7-1.9-6.4c0-2.7,0.7-4.8,2-6.3C328.3,312.9,330,312.1,332.1,312.1
		 M310.7,312.4v10.7c0,1.6,0.4,2.7,1.2,3.4c0.8,0.7,1.8,1,3.1,1s2.3-0.3,3.1-1c0.8-0.7,1.2-1.8,1.2-3.4v-10.7h2.1v10.7
		c0,2.1-0.6,3.7-1.7,4.7c-1.2,1.1-2.7,1.6-4.6,1.6s-3.5-0.5-4.6-1.6s-1.7-2.6-1.7-4.7v-10.7H310.7z M298.5,320.8
		c1.3,0,2.2-0.3,2.9-0.9c0.6-0.6,1-1.4,1-2.4s-0.3-1.8-0.9-2.4s-1.5-0.9-2.7-0.9h-3.7v6.6L298.5,320.8L298.5,320.8z M304.5,317.2
		c0,1.4-0.4,2.5-1.1,3.3s-1.8,1.4-3.3,1.6l4.8,6.9h-2.7l-4.3-6.8H295v6.8h-2.1v-16.7h5.8c1.9,0,3.3,0.4,4.3,1.4
		C304,314.7,304.5,315.8,304.5,317.2 M277.1,312.4h13v1.8h-5.4v14.9h-2.1v-14.9h-5.4v-1.8H277.1z M272.6,316.5
		c-0.3-1.6-1.5-2.4-3.6-2.4c-1.1,0-2,0.2-2.6,0.7s-0.9,1.1-0.9,1.8s0.2,1.2,0.6,1.6s1,0.7,1.8,0.9l3.5,1.2c1.2,0.4,2.1,1,2.8,1.7
		c0.7,0.7,1,1.7,1,3s-0.5,2.4-1.6,3.2c-1.1,0.9-2.6,1.3-4.4,1.3s-3.3-0.5-4.5-1.4s-1.8-2.2-1.8-3.9h2c0,1.1,0.4,1.9,1.2,2.5
		c0.8,0.6,1.8,0.9,3,0.9s2.2-0.3,2.9-0.8c0.7-0.5,1.1-1.2,1.1-1.9c0-0.7-0.2-1.3-0.7-1.7c-0.4-0.4-1.1-0.8-1.9-1.1l-2.9-1.1
		c-1.4-0.5-2.4-1-3.1-1.6s-1.1-1.6-1.1-2.8c0-1.2,0.5-2.3,1.5-3.1c1-0.8,2.4-1.2,4.2-1.2c1.8,0,3.2,0.4,4.1,1.2
		c0.9,0.8,1.5,1.8,1.6,3.2h-2.2V316.5z M248.1,312.4l8.3,13.4v-13.4h2.1v16.7h-2.3l-8.4-13.6v13.6h-2.1v-16.7H248.1z M238.3,312.4
		h2.1v16.7h-2.1V312.4z M221.7,312.1c1.8,0,3.2,0.4,4.3,1.3s1.8,2.1,2.2,3.5l-2.3,0.5c-0.4-1-0.9-1.9-1.7-2.5s-1.6-0.9-2.6-0.9
		c-1.4,0-2.6,0.6-3.5,1.8c-0.9,1.2-1.4,2.8-1.4,4.9s0.4,3.7,1.2,5s2,1.9,3.6,1.9c1.3,0,2.4-0.4,3.1-1.1c0.8-0.7,1.2-1.6,1.2-2.8h2.3
		c0,1.8-0.6,3.1-1.8,4.2c-1.2,1-2.8,1.5-4.9,1.5c-2.1,0-3.8-0.8-5-2.4c-1.3-1.6-1.9-3.7-1.9-6.4c0-2.7,0.7-4.8,2-6.3
		C217.9,312.9,219.6,312.1,221.7,312.1 M208.6,312.4h2.1v16.7h-2.1V312.4z M198.4,327.3h7.4v1.8h-9.5v-16.7h2.1V327.3z M186.1,327.3
		c1.3,0,2.2-0.3,2.7-0.8c0.6-0.5,0.8-1.2,0.8-2c0-0.9-0.3-1.5-0.9-2c-0.6-0.5-1.5-0.8-2.7-0.8h-4v5.6L186.1,327.3L186.1,327.3z
		 M182,319.9h4.1c1,0,1.8-0.3,2.5-0.8c0.6-0.5,0.9-1.2,0.9-2.1s-0.3-1.6-0.9-2.1c-0.6-0.5-1.4-0.7-2.5-0.7H182V319.9z M179.9,312.4
		h6.2c1.8,0,3.1,0.4,4.1,1.2c0.9,0.8,1.4,1.9,1.4,3.1c0,1-0.3,1.8-0.8,2.5s-1.3,1.2-2.4,1.4c1,0.2,1.9,0.6,2.5,1.4
		c0.6,0.7,0.9,1.5,0.9,2.5c0,2.1-1,3.4-3,4.2c-0.7,0.3-1.7,0.4-2.7,0.4h-6.3v-16.7H179.9z M164.3,312.4v10.7c0,1.6,0.4,2.7,1.2,3.4
		c0.8,0.7,1.8,1,3.1,1s2.3-0.3,3.1-1s1.2-1.8,1.2-3.4v-10.7h2.1v10.7c0,2.1-0.6,3.7-1.7,4.7c-1.2,1.1-2.7,1.6-4.6,1.6
		c-1.9,0-3.5-0.5-4.6-1.6s-1.7-2.6-1.7-4.7v-10.7H164.3z M153.3,320.8c1.2,0,2-0.3,2.6-0.9s0.9-1.4,0.9-2.4s-0.3-1.8-0.9-2.4
		c-0.6-0.6-1.5-0.9-2.6-0.9H150v6.6L153.3,320.8L153.3,320.8z M157.5,313.8c1,0.9,1.4,2.2,1.4,3.8c0,1.6-0.5,2.8-1.4,3.7
		c-1,0.9-2.4,1.4-4.2,1.4H150v6.5h-2.1v-16.7h5.4C155.2,312.4,156.6,312.9,157.5,313.8 M128,312.4h10.1v1.8h-8v5.5h7.5v1.8h-7.5v7.5
		H128V312.4z M116.9,314c-1.6,0-2.8,0.6-3.7,1.8c-0.9,1.2-1.4,2.9-1.4,5c0,2.2,0.5,3.9,1.4,5s2.1,1.7,3.7,1.7s2.8-0.6,3.7-1.7
		c0.9-1.1,1.4-2.8,1.4-5s-0.5-3.9-1.4-5C119.6,314.6,118.4,314,116.9,314 M116.9,312.1c2.2,0,3.9,0.7,5.2,2.2c1.3,1.5,2,3.6,2,6.5
		c0,2.8-0.7,5-2,6.4c-1.3,1.5-3.1,2.2-5.3,2.2c-2.2,0-3.9-0.7-5.2-2.2c-1.3-1.5-2-3.6-2-6.4s0.7-5,2-6.4
		C112.9,312.8,114.7,312.1,116.9,312.1 M453,288.6h13.8v2.7h-5.3v14.5h-3.1v-14.5H453V288.6z M439.8,288.6l7.6,12.2v-12.2h3.1v17.2
		h-3.2l-7.8-12.6v12.6h-3.1v-17.2H439.8z M421,288.6h11.1v2.7h-8v4.5h7.5v2.7h-7.5v4.5h8v2.7H421V288.6z M406,303h2.4
		c1.6,0,2.9-0.6,4-1.6c1-1.1,1.4-2.4,1.4-4.1s-0.5-3.1-1.4-4.2c-1-1.1-2.3-1.6-4-1.6H406V303z M408.5,288.6c2.6,0,4.7,0.8,6.3,2.3
		c1.6,1.6,2.4,3.7,2.4,6.3c0,2.6-0.8,4.7-2.4,6.3c-1.6,1.6-3.7,2.3-6.3,2.3h-5.6v-17.2L408.5,288.6L408.5,288.6z M387.4,288.6
		l7.6,12.2v-12.2h3.1v17.2h-3.2l-7.8-12.6v12.6H384v-17.2H387.4z M368.5,288.6h11.1v2.7h-8v4.5h7.5v2.7h-7.5v4.5h8v2.7h-11.1V288.6z
		 M352.3,288.6h13.8v2.7h-5.3v14.5h-3.1v-14.5h-5.3v-2.7H352.3z M339,288.6l7.6,12.2v-12.2h3.1v17.2h-3.2l-7.8-12.6v12.6h-3.1v-17.2
		H339z M327.7,288.6h3.1v17.2h-3.1V288.6z M316.8,297c1.2,0,2-0.3,2.6-0.8s0.9-1.2,0.9-2.1s-0.3-1.5-0.8-2.1
		c-0.5-0.5-1.3-0.8-2.4-0.8h-3.2v5.7L316.8,297L316.8,297z M323.5,293.9c0,1.2-0.3,2.3-1,3.1c-0.7,0.9-1.7,1.5-3,1.8l4.6,7H320
		l-3.8-6.7h-2.4v6.7h-3.1v-17.2h6.4c2,0,3.6,0.5,4.8,1.5C322.9,291,323.5,292.3,323.5,293.9 M295.2,288.6h11.1v2.7h-8v4.5h7.5v2.7
		h-7.5v4.5h8v2.7h-11.1V288.6z M286,296.9c1,0,1.7-0.3,2.2-0.8s0.7-1.2,0.7-2s-0.2-1.5-0.7-2s-1.2-0.8-2.2-0.8h-2.9v5.5L286,296.9
		L286,296.9z M290.5,290c1.1,0.9,1.6,2.3,1.6,4.1c0,1.8-0.5,3.1-1.6,4.1c-1.1,0.9-2.6,1.4-4.6,1.4H283v6.3h-3.2v-17.2h6.1
		C287.9,288.6,289.4,289.1,290.5,290 M264.6,288.6v10.7c0,1.4,0.4,2.4,1.1,3.1c0.7,0.6,1.6,0.9,2.8,0.9s2.1-0.3,2.8-0.9
		c0.7-0.6,1.1-1.6,1.1-3.1v-10.7h3.1v10.7c0,2.2-0.6,3.9-1.8,5.1c-1.2,1.2-2.9,1.8-5.2,1.8c-2.2,0-3.9-0.6-5.2-1.8
		c-1.2-1.2-1.8-2.9-1.8-5.1v-10.7H264.6z M254,293.4c-0.3-1.5-1.3-2.3-3.2-2.3c-0.9,0-1.6,0.2-2.1,0.5c-0.5,0.4-0.8,0.8-0.8,1.3
		s0.2,0.9,0.5,1.2c0.3,0.3,0.8,0.6,1.5,0.8l3.7,1.5c1.3,0.5,2.3,1.1,2.9,1.9c0.7,0.8,1,1.7,1,2.8c0,1.6-0.6,2.8-1.8,3.7
		c-1.2,0.9-2.8,1.4-5,1.4c-1.9,0-3.5-0.5-4.6-1.4c-1.3-1-2-2.5-2.1-4.4h3.1c0,1.4,0.7,2.3,2.2,2.7c0.4,0.1,1,0.2,1.8,0.2
		c0.7,0,1.4-0.2,2-0.5c0.6-0.4,0.9-0.8,0.9-1.5s-0.2-1.1-0.5-1.4s-0.9-0.6-1.6-0.9l-3.4-1.4c-1.3-0.5-2.3-1.1-3.1-1.8
		c-0.7-0.7-1.1-1.6-1.1-2.9c0-1.4,0.6-2.6,1.7-3.4c1.1-0.9,2.7-1.3,4.6-1.3c1.9,0,3.4,0.4,4.5,1.3s1.7,2.1,1.8,3.8L254,293.4
		L254,293.4z M222.8,288.6h11.1v2.7h-8v4.5h7.5v2.7H226v4.5h8v2.7h-11.1L222.8,288.6L222.8,288.6z M206.6,288.6h13.8v2.7H215v14.5
		h-3.1v-14.5h-5.3L206.6,288.6L206.6,288.6z M197,299.8h4.8l-2.4-7.4L197,299.8z M197.5,288.6h3.9l5.7,17.2h-3.3l-1.2-3.7h-6.4
		l-1.2,3.7h-3.3L197.5,288.6z M178.4,288.6h13.8v2.7h-5.3v14.5h-3.1v-14.5h-5.3L178.4,288.6L178.4,288.6z M172.9,293.4
		c-0.3-1.5-1.3-2.3-3.2-2.3c-0.9,0-1.6,0.2-2.1,0.5c-0.5,0.4-0.8,0.8-0.8,1.3s0.2,0.9,0.5,1.2c0.3,0.3,0.8,0.6,1.5,0.8l3.7,1.5
		c1.3,0.5,2.3,1.1,2.9,1.9c0.7,0.8,1,1.7,1,2.8c0,1.6-0.6,2.8-1.8,3.7c-1.2,0.9-2.8,1.4-5,1.4c-1.9,0-3.5-0.5-4.6-1.4
		c-1.3-1-2-2.5-2.1-4.4h3.1c0,1.4,0.7,2.3,2.2,2.7c0.4,0.1,1,0.2,1.8,0.2c0.7,0,1.4-0.2,2-0.5c0.6-0.4,0.9-0.8,0.9-1.5
		s-0.2-1.1-0.5-1.4s-0.9-0.6-1.6-0.9l-3.4-1.4c-1.3-0.5-2.3-1.1-3.1-1.8c-0.7-0.7-1.1-1.6-1.1-2.9c0-1.4,0.6-2.6,1.7-3.4
		c1.1-0.9,2.7-1.3,4.6-1.3c1.9,0,3.4,0.4,4.5,1.3s1.7,2.1,1.8,3.8L172.9,293.4L172.9,293.4z M147.4,297.6c1.3,0,2.2-0.3,2.9-0.9
		c0.6-0.6,1-1.4,1-2.4s-0.3-1.8-0.9-2.4c-0.6-0.6-1.5-0.9-2.7-0.9H144v6.6L147.4,297.6L147.4,297.6z M153.4,293.9
		c0,1.4-0.4,2.5-1.1,3.3c-0.7,0.9-1.8,1.4-3.3,1.6l4.8,6.9h-2.7l-4.3-6.8h-2.9v6.8h-2.1V289h5.8c1.9,0,3.3,0.5,4.3,1.4
		C152.9,291.4,153.4,292.6,153.4,293.9 M130.7,290.8c-1.6,0-2.8,0.6-3.7,1.8c-0.9,1.2-1.4,2.8-1.4,5s0.4,3.9,1.4,5
		c0.9,1.1,2.1,1.7,3.7,1.7c1.6,0,2.8-0.6,3.7-1.7s1.4-2.8,1.4-5s-0.5-3.9-1.4-5C133.5,291.3,132.2,290.8,130.7,290.8 M130.7,288.9
		c2.2,0,3.9,0.7,5.2,2.2s2,3.6,2,6.5c0,2.8-0.7,5-2,6.4c-1.3,1.5-3.1,2.2-5.3,2.2s-3.9-0.7-5.2-2.2c-1.3-1.5-2-3.6-2-6.4
		s0.7-5,2-6.4C126.7,289.6,128.5,288.9,130.7,288.9 M111,289.2h10.1v1.8h-8v5.6h7.5v1.8h-7.5v7.5H111V289.2z M392.1,174.1v39.5
		l37.8-39.5h23.9l-42.3,43.2l45.1,52.8H434l-34.1-40.7l-7.8,8V270h-17.6v-95.9H392.1z M322.5,172.2c5.9,0,11,0.7,15.4,2.1
		c4.3,1.4,8.1,3.4,11.2,6c6.2,5,10.2,12.1,12.1,21.1l-18.6,3.4c-1.6-5-4-9.1-7.3-12.2c-3.3-3.1-7.4-4.7-12.3-4.7
		c-6.7,0-12.1,2.8-16.3,8.4c-4.4,6.1-6.7,14.6-6.7,25.4s2,19.2,5.9,25.3s9.3,9.1,16.1,9.1c6.8,0,11.9-1.6,15.4-5
		c3.4-3.3,5.2-7.6,5.2-12.8h18.8c0,10.7-3.4,19-10.3,24.9c-6.8,5.9-16.2,8.8-28.2,8.8c-12.7,0-22.8-4.4-30.3-13.3
		c-7.6-9.1-11.4-21.4-11.4-37c0-15.8,3.9-28.1,11.7-37C300.4,176.4,310.3,172.2,322.5,172.2 M209.2,174.1v59.7c0,7.9,2,13.6,6,17
		c4,3.5,9.1,5.2,15.4,5.2c6.3,0,11.5-1.7,15.4-5.2c4-3.4,6-9.1,6-17v-59.7h17.4v59.7c0,12.2-3.4,21.7-10.2,28.3
		c-6.8,6.7-16.4,10-28.7,10s-21.9-3.3-28.7-10c-6.8-6.7-10.2-16.1-10.2-28.3v-59.7H209.2z M109.2,174.1H186v15.1h-29.7V270h-17.4
		v-80.9h-29.7L109.2,174.1L109.2,174.1z M435.6,153.7h20.6v7.9h-29.7v-50h9.1V153.7z M403.2,153.7h20.6v7.9h-29.7v-50h9.1V153.7z
		 M361.6,144h14l-6.9-21.5L361.6,144z M363.1,111.6h11.4l16.4,50h-9.6l-3.5-10.8h-18.6l-3.5,10.8h-9.6L363.1,111.6z M312,111.6v20.9
		h21.8v-20.9h9.1v50h-9.1v-21.2H312v21.2h-9.1v-50C302.9,111.6,312,111.6,312,111.6z M285.7,125.4c-0.8-4.4-3.9-6.6-9.3-6.6
		c-2.6,0-4.7,0.5-6.1,1.6c-1.5,1.1-2.2,2.3-2.2,3.8s0.5,2.7,1.4,3.5c1,0.9,2.4,1.6,4.4,2.4l10.9,4.2c3.7,1.4,6.6,3.3,8.6,5.4
		c2,2.2,3,4.9,3,8.2c0,4.5-1.7,8.1-5.1,10.8c-3.4,2.6-8.2,4-14.5,4c-5.6,0-10.1-1.4-13.5-4.1c-3.9-3-5.9-7.2-6.1-12.6h9
		c0,4.1,2.1,6.7,6.4,7.8c1.3,0.4,3,0.5,5.1,0.5s4.1-0.5,5.9-1.6s2.7-2.5,2.7-4.2s-0.5-3.1-1.5-4.1s-2.6-1.8-4.8-2.7l-9.9-3.9
		c-3.9-1.5-6.8-3.2-8.9-5.2s-3.1-4.8-3.1-8.3c0-4.2,1.6-7.5,4.9-9.9c3.3-2.5,7.7-3.8,13.4-3.8c5.6,0,10,1.3,13,3.9
		c3.1,2.6,4.8,6.2,5.3,10.9L285.7,125.4L285.7,125.4z M233.1,136c3.3,0,5.9-0.8,7.6-2.3c1.7-1.5,2.5-3.5,2.5-6s-0.8-4.5-2.3-6
		s-3.9-2.3-6.9-2.3h-9.4V136H233.1z M252.6,126.9c0,3.5-1,6.6-3,9.1s-4.9,4.3-8.6,5.2l13.4,20.4h-11.9l-11-19.5h-6.9v19.5h-9.1v-50
		H234c5.9,0,10.5,1.4,13.8,4.2C251,118.5,252.6,122.2,252.6,126.9 M182.9,144h14l-6.9-21.5L182.9,144z M184.4,111.6h11.4l16.4,50
		h-9.6l-3.5-10.8h-18.6l-3.5,10.8h-9.6L184.4,111.6z M124.2,111.6l13.7,29.8l13.7-29.8h12.6v50H155v-38l-14.2,32.5h-5.9l-14.7-33.6
		v39.1h-9.1v-50C111.1,111.6,124.2,111.6,124.2,111.6z"/>
</g>
</svg>
