<?xml version="1.0" encoding="utf-8"?>
<!-- Generator: Adobe Illustrator 21.0.0, SVG Export Plug-In . SVG Version: 6.00 Build 0)  -->
<svg version="1.1" id="Layer_1" xmlns="http://www.w3.org/2000/svg" xmlns:xlink="http://www.w3.org/1999/xlink" x="0px" y="0px"
	 viewBox="0 0 469.6 234.5" style="enable-background:new 0 0 469.6 234.5;" xml:space="preserve">
<style type="text/css">
	.st0{fill:#35A2DB;}
</style>
<path class="st0" d="M377.6,94.7v51.7l49.4-51.7h31.3L403,151.2l59,69.1h-29.6L387.8,167l-10.2,10.5v42.6h-23V94.7H377.6z
	 M286.6,92.2c7.7,0,14.4,0.9,20.1,2.7c5.6,1.8,10.6,4.4,14.6,7.8c8.1,6.5,13.3,15.8,15.8,27.6l-24.3,4.4c-2.1-6.5-5.2-11.9-9.5-16
	c-4.3-4.1-9.7-6.1-16.1-6.1c-8.8,0-15.8,3.7-21.3,11c-5.8,8-8.8,19.1-8.8,33.2c0,14.1,2.6,25.1,7.7,33.1s12.2,11.9,21.1,11.9
	c8.9,0,15.6-2.1,20.1-6.5c4.4-4.3,6.8-9.9,6.8-16.7h24.6c0,14-4.4,24.9-13.5,32.6c-8.9,7.7-21.2,11.5-36.9,11.5
	c-16.6,0-29.8-5.8-39.6-17.4c-9.9-11.9-14.9-28-14.9-48.4c0-20.7,5.1-36.8,15.3-48.4C257.7,97.7,270.6,92.2,286.6,92.2 M138.4,94.7
	v78.1c0,10.3,2.6,17.8,7.8,22.2c5.2,4.6,11.9,6.8,20.1,6.8c8.2,0,15-2.2,20.1-6.8c5.2-4.4,7.8-11.9,7.8-22.2V94.7h22.8v78.1
	c0,16-4.4,28.4-13.3,37c-8.9,8.8-21.5,13.1-37.5,13.1s-28.6-4.3-37.5-13.1c-8.9-8.8-13.3-21.1-13.3-37V94.7H138.4z M7.6,94.7h100.5
	v19.8H69.2v105.7H46.4V114.3H7.6L7.6,94.7L7.6,94.7z M434.5,68h26.9v10.3h-38.8V12.9h11.9V68z M392.2,68h26.9v10.3h-38.8V12.9h11.9
	V68z M337.7,55.3h18.3l-9-28.1L337.7,55.3z M339.7,12.9h14.9l21.5,65.4h-12.6l-4.6-14.1h-24.3L330,78.3h-12.6L339.7,12.9z
	 M272.9,12.9v27.3h28.5V12.9h11.9v65.4h-11.9V50.6h-28.5v27.7H261V12.9C261,12.9,272.9,12.9,272.9,12.9z M238.5,31
	c-1-5.8-5.1-8.6-12.2-8.6c-3.4,0-6.1,0.7-8,2.1c-2,1.4-2.9,3-2.9,5s0.7,3.5,1.8,4.6c1.3,1.2,3.1,2.1,5.8,3.1l14.3,5.5
	c4.8,1.8,8.6,4.3,11.2,7.1c2.6,2.9,3.9,6.4,3.9,10.7c0,5.9-2.2,10.6-6.7,14.1c-4.4,3.4-10.7,5.2-19,5.2c-7.3,0-13.2-1.8-17.7-5.4
	c-5.1-3.9-7.7-9.4-8-16.5H213c0,5.4,2.7,8.8,8.4,10.2c1.7,0.5,3.9,0.7,6.7,0.7s5.4-0.7,7.7-2.1c2.4-1.4,3.5-3.3,3.5-5.5
	c0-2.2-0.7-4.1-2-5.4s-3.4-2.4-6.3-3.5l-12.9-5.1c-5.1-2-8.9-4.2-11.6-6.8s-4.1-6.3-4.1-10.9c0-5.5,2.1-9.8,6.4-12.9
	c4.3-3.3,10.1-5,17.5-5c7.3,0,13.1,1.7,17,5.1c4.1,3.4,6.3,8.1,6.9,14.3L238.5,31L238.5,31z M169.7,44.8c4.3,0,7.7-1,9.9-3
	c2.2-2,3.3-4.6,3.3-7.8s-1-5.9-3-7.8s-5.1-3-9-3h-12.3v21.7H169.7z M195.2,32.9c0,4.6-1.3,8.6-3.9,11.9c-2.6,3.3-6.4,5.6-11.2,6.8
	l17.5,26.7H182l-14.4-25.5h-9v25.5h-11.9V12.9h24.2c7.7,0,13.7,1.8,18.1,5.5C193.1,21.9,195.2,26.8,195.2,32.9 M104,55.3h18.3
	l-9-28.1L104,55.3z M106,12.9h14.9l21.5,65.4h-12.6l-4.6-14.1h-24.3l-4.6,14.1H83.7L106,12.9z M27.2,12.9l17.9,39l17.9-39h16.5v65.4
	h-12V28.6L48.9,71.1h-7.7L22,27.2v51.1H10.1V12.9C10.1,12.9,27.2,12.9,27.2,12.9z"/>
</svg>
